<?xml version="1.0" standalone="no"?>
<!DOCTYPE svg PUBLIC "-//W3C//DTD SVG 20010904//EN"
 "http://www.w3.org/TR/2001/REC-SVG-20010904/DTD/svg10.dtd">
<svg version="1.0" xmlns="http://www.w3.org/2000/svg"
 width="300.000000pt" height="250.000000pt" viewBox="0 0 300.000000 250.000000"
 preserveAspectRatio="xMidYMid meet">
<metadata>
Created by potrace 1.13, written by Peter Selinger 2001-2015
</metadata>
<g transform="translate(0.000000,250.000000) scale(0.100000,-0.100000)"
fill="#000000" stroke="none">
<path d="M0 1250 l0 -1250 1500 0 1500 0 0 1250 0 1250 -1500 0 -1500 0 0
-1250z m1008 1111 c3 -10 -2 -12 -21 -7 -39 9 -40 -8 -1 -26 31 -14 34 -14 34
0 0 26 32 52 63 52 58 0 88 -60 50 -102 -20 -22 -70 -24 -93 -3 -15 14 -18 14
-30 0 -13 -15 -46 -20 -74 -9 -28 11 -17 26 13 19 40 -8 48 10 11 24 -36 12
-47 35 -29 57 15 18 70 15 77 -5z m-334 -203 l34 -73 1 68 c1 65 2 67 26 67
24 0 25 -3 25 -55 l0 -55 43 0 42 0 -3 55 c-4 53 -3 55 22 55 25 0 26 -2 26
-55 l0 -55 40 0 c33 0 40 -3 40 -20 0 -19 -7 -20 -154 -20 -128 0 -155 3 -160
15 -7 20 -56 19 -70 -1 -7 -9 -21 -14 -33 -12 -19 3 -19 6 15 81 46 101 61
102 106 5z m1031 62 c22 -8 24 -12 13 -29 -9 -15 -16 -17 -34 -9 -29 14 -54
-4 -54 -38 0 -24 33 -50 50 -39 15 9 12 25 -5 25 -8 0 -15 7 -15 15 0 11 11
15 40 15 38 0 40 -1 40 -31 0 -26 3 -29 14 -20 10 9 20 9 40 0 19 -9 30 -9 37
-2 7 7 -2 15 -33 24 -38 12 -43 17 -43 44 0 41 41 61 91 45 28 -10 33 -15 24
-26 -8 -8 -22 -11 -41 -7 -37 7 -39 -12 -2 -22 38 -9 53 -23 53 -50 0 -35 -23
-48 -77 -41 -59 7 -67 7 -123 0 -37 -5 -50 -2 -73 16 -35 28 -37 77 -4 107 36
33 61 39 102 23z m588 -1 c31 -16 31 -16 16 -32 -10 -11 -19 -12 -36 -4 -28
13 -53 -6 -53 -39 0 -24 33 -50 50 -39 15 9 12 25 -5 25 -8 0 -15 7 -15 15 0
11 11 15 40 15 39 0 40 -1 40 -35 0 -40 -20 -55 -73 -55 -48 0 -87 33 -87 73
0 40 8 52 45 71 36 19 49 20 78 5z m382 -65 c19 -42 35 -78 35 -80 0 -12 -49
-2 -54 11 -7 20 -56 19 -70 -1 -7 -9 -21 -14 -33 -12 -19 3 -19 6 15 81 46
102 61 103 107 1z m-1455 41 c0 -20 5 -25 25 -25 20 0 25 5 25 25 0 20 5 25
25 25 24 0 25 -2 25 -75 0 -73 -1 -75 -25 -75 -21 0 -25 5 -25 30 0 25 -4 30
-25 30 -21 0 -25 -5 -25 -30 0 -25 -4 -30 -25 -30 -24 0 -25 3 -25 55 0 52 -1
55 -25 55 -24 0 -25 -3 -25 -55 0 -52 -1 -55 -25 -55 -24 0 -25 3 -25 54 0 49
-2 55 -22 58 -13 2 -24 11 -26 21 -3 15 7 17 97 17 l101 0 0 -25z m269 -12
l31 -38 0 38 c0 33 3 37 25 37 24 0 25 -2 25 -75 0 -71 -1 -75 -23 -75 -15 0
-34 14 -55 42 l-32 42 0 -42 c0 -38 -2 -42 -25 -42 -24 0 -25 2 -25 75 0 73 1
75 24 75 16 0 35 -13 55 -37z m586 12 c59 -58 11 -125 -90 -125 l-45 0 0 75 0
75 55 0 c46 0 60 -4 80 -25z m-1702 -45 c21 -129 107 -691 107 -705 0 -13 -19
-7 -87 31 -192 103 -293 155 -293 150 0 -2 18 -26 40 -53 58 -69 60 -72 60
-78 0 -6 11 -20 38 -50 6 -7 12 -19 12 -25 0 -6 9 -23 20 -38 15 -21 20 -45
21 -104 1 -47 6 -75 12 -71 18 11 77 21 71 12 -3 -5 -11 -9 -18 -9 -8 0 -33
-9 -57 -21 l-44 -20 38 6 c36 6 37 5 37 -25 0 -36 -24 -41 -35 -7 -7 21 -7 21
-14 -7 -7 -34 -31 -47 -31 -17 0 33 -18 34 -25 1 -7 -30 -35 -43 -35 -16 0 8
-4 16 -8 18 -9 3 -173 982 -172 1025 0 12 5 25 11 29 7 4 73 9 148 12 75 2
138 6 141 9 2 2 16 3 30 1 21 -3 26 -10 33 -48z m2617 -1120 l0 -1020 -1490 0
-1490 0 0 425 c0 234 2 425 3 425 2 0 19 -7 36 -16 46 -23 92 -15 303 57 102
34 184 57 189 52 5 -5 11 -22 15 -39 5 -26 2 -31 -30 -46 -45 -22 -53 -51 -28
-109 24 -55 43 -64 172 -78 52 -6 124 -20 158 -31 70 -22 158 -26 212 -10 19
6 80 13 135 15 113 4 188 26 254 73 22 16 69 37 103 45 192 47 234 57 246 57
9 0 12 -30 12 -117 0 -131 13 -169 67 -196 38 -19 738 -17 823 3 139 32 184
99 104 157 -25 18 -25 21 -14 63 21 79 2 157 -54 218 -18 20 -20 33 -17 85 1
34 8 65 14 69 9 5 9 10 -1 20 -6 6 -12 24 -12 40 0 52 -56 60 -247 32 -62 -9
-119 -14 -126 -11 -7 3 -19 36 -25 73 -7 38 -24 129 -39 202 -14 73 -23 135
-20 139 3 3 26 8 51 10 l46 6 -18 -34 c-12 -25 -17 -57 -17 -124 1 -125 5
-134 75 -179 49 -31 72 -39 123 -43 77 -6 116 9 191 75 31 27 76 57 101 65 25
9 66 24 91 33 28 10 49 25 54 38 4 11 8 73 9 137 2 108 1 116 -21 135 -18 15
-20 15 -9 2 21 -27 -3 -78 -36 -78 -18 0 -23 -4 -20 -14 4 -9 -4 -17 -21 -21
-41 -11 -131 -14 -137 -5 -3 4 5 6 17 4 22 -4 22 -4 -1 6 -13 6 -37 22 -54 36
-29 25 -36 26 -119 22 -67 -3 -92 -8 -108 -23 -11 -10 -20 -14 -20 -9 0 6 17
20 38 32 31 19 33 22 12 19 -35 -5 -60 -16 -95 -42 -18 -12 -49 -22 -75 -24
-25 -2 -47 -4 -49 -7 -2 -2 -13 11 -25 29 -16 24 -31 34 -61 38 -22 3 -34 7
-27 8 10 1 10 5 0 20 -9 14 -16 17 -24 10 -7 -5 -25 -7 -40 -3 l-28 7 22 -31
c22 -31 30 -68 12 -57 -5 3 -10 -1 -10 -9 0 -9 -7 -13 -20 -11 -11 2 -20 1
-20 -3 0 -7 -20 -11 -67 -13 -14 -1 -23 -8 -24 -18 0 -12 -2 -12 -9 4 -13 30
-12 42 8 61 16 17 16 18 0 11 -12 -4 -18 -2 -18 8 0 22 22 30 35 12 9 -13 27
-17 71 -16 45 1 53 3 34 9 -14 4 -21 8 -16 9 5 1 3 8 -4 16 -7 9 -24 14 -39
13 -16 -2 -25 2 -24 9 4 21 -32 0 -61 -34 -26 -31 -29 -32 -54 -19 -15 7 -64
26 -110 41 -79 26 -122 58 -122 89 0 8 234 51 673 125 369 62 674 115 676 117
2 2 6 4 8 4 2 0 3 -459 3 -1020z m-2910 -16 c0 -14 -8 -24 -22 -28 -50 -13
-48 -20 -47 222 l1 227 34 -200 c18 -110 34 -210 34 -221z"/>
<path d="M90 305 l0 -215 310 0 310 0 0 215 0 215 -310 0 -310 0 0 -215z m610
0 l0 -205 -300 0 -300 0 0 205 0 205 300 0 300 0 0 -205z"/>
<path d="M130 349 l0 -131 95 4 c73 2 98 7 111 20 17 16 17 19 1 36 -20 21
-23 52 -5 52 6 0 4 6 -6 13 -16 12 -16 14 -2 26 25 21 20 66 -10 90 -22 17
-41 21 -105 21 l-79 0 0 -131z"/>
<path d="M430 399 c0 -59 3 -78 12 -73 8 5 9 2 5 -11 -4 -9 -2 -25 5 -33 11
-13 10 -15 -4 -9 -15 5 -18 1 -18 -23 0 -29 2 -30 45 -30 l45 0 0 45 c0 43 1
45 30 45 29 0 30 -2 30 -45 l0 -45 45 0 45 0 0 130 0 130 -45 0 -45 0 0 -45
c0 -43 -1 -45 -30 -45 -29 0 -30 2 -30 45 l0 45 -45 0 -45 0 0 -81z"/>
<path d="M130 165 l0 -35 270 0 270 0 0 35 0 35 -270 0 -270 0 0 -35z"/>
<path d="M915 509 c-96 -19 -100 -22 -97 -65 5 -79 35 -156 77 -201 22 -23 42
-42 45 -42 3 0 13 -3 24 -7 27 -10 66 16 103 71 37 53 52 100 56 170 l2 49
-50 13 c-67 18 -112 21 -160 12z"/>
</g>
</svg>
